<?xml version="1.0" encoding="UTF-8" standalone="no"?>
<svg xmlns="http://www.w3.org/2000/svg" width="1200" height="300" viewBox="0 0 1200 300" fill="none">
  <path d="M120 50C120 50 150 20 180 20C210 20 240 50 240 50C240 50 270 80 300 80C330 80 360 50 360 50C360 50 390 20 420 20C450 20 480 50 480 50C480 50 510 80 540 80C570 80 600 50 600 50C600 50 630 20 660 20C690 20 720 50 720 50C720 50 750 80 780 80C810 80 840 50 840 50C840 50 870 20 900 20C930 20 960 50 960 50C960 50 990 80 1020 80C1050 80 1080 50 1080 50" stroke="#FF6B00" stroke-width="8" stroke-linecap="round"/>
  <path d="M120 150C120 150 150 120 180 120C210 120 240 150 240 150C240 150 270 180 300 180C330 180 360 150 360 150C360 150 390 120 420 120C450 120 480 150 480 150C480 150 510 180 540 180C570 180 600 150 600 150C600 150 630 120 660 120C690 120 720 150 720 150C720 150 750 180 780 180C810 180 840 150 840 150C840 150 870 120 900 120C930 120 960 150 960 150C960 150 990 180 1020 180C1050 180 1080 150 1080 150" stroke="#FF6B00" stroke-width="8" stroke-linecap="round"/>
  <path d="M120 250C120 250 150 220 180 220C210 220 240 250 240 250C240 250 270 280 300 280C330 280 360 250 360 250C360 250 390 220 420 220C450 220 480 250 480 250C480 250 510 280 540 280C570 280 600 250 600 250C600 250 630 220 660 220C690 220 720 250 720 250C720 250 750 280 780 280C810 280 840 250 840 250C840 250 870 220 900 220C930 220 960 250 960 250C960 250 990 280 1020 280C1050 280 1080 250 1080 250" stroke="#FF6B00" stroke-width="8" stroke-linecap="round"/>
  <text x="50%" y="50%" dominant-baseline="middle" text-anchor="middle" font-family="Arial, sans-serif" font-size="100" font-weight="bold" fill="#FF6B00">RENNSZ</text>
</svg>